<svg xmlns="http://www.w3.org/2000/svg" width="34.112" height="160.734" viewBox="0 0 34.112 160.734">
  <g>
    <path d="M25.345,8.767s8.767,0,8.767,8.767V0Z" fill="#b3c53f"/>
    <path d="M32.612,39.378v3.836l-2.464,2.464c.814-1.929,1.673-4.085,2.464-6.3m1.5-13.077c0,8.767-8.767,26.3-8.767,26.3l8.767-8.767V26.3Z" fill="#b3c53f"/>
    <path d="M25.345,8.767S16.578,17.534,16.578,26.3V131.507c8.767,0,8.767-8.768,8.767-8.768Z" fill="#8a33b9"/>
    <path d="M8.73,69.6l.01,5.68c.01-.029.01-.05.02-.079v-5.63Z" fill="#b3c53f"/>
    <path d="M8.76,67.424V46.765s0-8.76-8.76-8.76v105.2c0,8.769,8.76,17.529,8.76,17.529V79.645c2.23-8.77,7.6-19.611,7.81-20.031ZM7.26,156.7c-2.44-3.161-5.76-8.38-5.76-13.49V39.614c5.54.86,5.76,6.471,5.76,7.151ZM8.74,75.284,8.73,69.6l.03-.029,3.01-3.05a85.923,85.923,0,0,0-3.01,8.68C8.75,75.234,8.75,75.255,8.74,75.284Z" fill="#b3c53f"/>
  </g>
</svg>
